<?xml version="1.0" encoding="UTF-8"?>
<svg id="Layer_3" data-name="Layer 3" xmlns="http://www.w3.org/2000/svg" viewBox="0 0 4972.12 1083.82">
  <g>
    <path d="M647.01,1006.77c-232.7,0-428.44-121.43-485.48-286.25l-37.7-7.62c70.32,181.81,277.95,313.55,523.18,313.55,303.06,0,548.74-201.24,548.74-449.53,0-5.17-.1-10.31-.35-15.4-120.45,77.24-324.1,128-555.01,128-181.77,0-346.64-31.45-467.33-82.57l7.66,26.15c112.34,51.94,276.91,84.69,460.22,84.69,211.36,0,397.81-43.55,508.06-109.79.25,4.36.35,8.76.35,13.2,0,212.97-224.94,385.57-502.34,385.57h0Z" fill="#e8e9e3"/>
    <path d="M647.01,1055.73c-124.3,0-242.71-32.12-342.42-92.87-48.32-29.44-90.67-64.76-125.87-104.98-35.93-41.05-63.58-86.27-82.2-134.42l-19.29-49.87,106.51,21.53,5.47,15.81c12.85,37.13,33.59,72.33,61.64,104.64,28,32.24,62.51,60.76,102.6,84.74,40.85,24.45,86.33,43.5,135.17,56.62,50.75,13.63,104.05,20.55,158.41,20.55,244.45,0,446.18-140.38,470.58-319.71-50.54,23.77-111.19,43.73-178.39,58.56-91.1,20.11-194.23,30.74-298.26,30.74-91.43,0-179.63-7.86-262.14-23.37-80.39-15.11-151.17-36.65-210.38-64.02l-12.08-5.58-28.76-98.22,56.89,24.1c122.18,51.75,284.09,80.25,455.91,80.25,109.14,0,217.1-11.84,312.21-34.25,91.04-21.45,169.53-52.26,226.99-89.11l42.59-27.31,2.47,50.54c.26,5.27.38,10.78.38,16.83,0,65.41-15.61,128.81-46.39,188.42-29.48,57.1-71.56,108.28-125.06,152.11-53.07,43.48-114.78,77.58-183.4,101.35-70.74,24.51-145.83,36.94-223.18,36.94Z" fill="#e8e9e3"/>
  </g>
  <g>
    <path d="M672.58,76.77c232.7,0,428.44,121.43,485.48,286.25l37.7,7.62C1125.44,188.84,917.81,57.1,672.58,57.1c-303.06,0-548.74,201.24-548.74,449.53,0,5.17.1,10.31.35,15.4,120.45-77.24,324.1-128,555.01-128,181.77,0,346.64,31.45,467.33,82.57l-7.66-26.15c-112.34-51.94-276.91-84.69-460.22-84.69-211.36,0-397.81,43.55-508.06,109.79-.25-4.36-.35-8.76-.35-13.2,0-212.97,224.94-385.57,502.34-385.57h0Z" fill="#e8e9e3"/>
    <path d="M97.4,573.99l-2.47-50.54c-.26-5.28-.38-10.78-.38-16.82,0-65.41,15.61-128.8,46.39-188.42,29.48-57.1,71.56-108.28,125.06-152.11,53.07-43.48,114.78-77.58,183.4-101.35,70.74-24.51,145.83-36.94,223.18-36.94,124.3,0,242.71,32.11,342.42,92.87,48.32,29.44,90.67,64.76,125.87,104.98,35.93,41.05,63.58,86.27,82.2,134.42l19.29,49.87-106.51-21.53-5.47-15.81c-12.85-37.13-33.59-72.33-61.64-104.64-28-32.24-62.52-60.76-102.6-84.74-40.85-24.45-86.33-43.5-135.17-56.62-50.75-13.63-104.05-20.55-158.4-20.55-244.45,0-446.18,140.38-470.58,319.71,50.54-23.77,111.19-43.73,178.39-58.56,91.1-20.11,194.23-30.74,298.26-30.74,91.43,0,179.63,7.86,262.14,23.37,80.4,15.11,151.18,36.65,210.38,64.02l12.08,5.58,28.75,98.22-56.89-24.1c-122.18-51.75-284.09-80.25-455.91-80.25-109.14,0-217.1,11.84-312.21,34.25-91.04,21.45-169.53,52.26-226.99,89.11l-42.6,27.31Z" fill="#e8e9e3"/>
  </g>
  <g>
    <path d="M2013.1,416.77c-2.35-16.43-4.69-29.34-14.08-44.59-15.25-22.29-43.42-37.55-97.39-37.55,0,0-95.04-4.69-95.04,59.84,0,11.73,4.69,34.03,30.51,45.76,14.08,7.04,44.59,15.25,80.96,23.47,117.34,23.47,177.18,37.55,221.77,79.79,34.03,30.51,48.11,68.06,48.11,112.65,0,41.07-11.73,79.79-36.38,111.47-37.55,50.46-106.78,92.7-239.37,92.7-24.64,0-178.36,3.52-248.76-102.08-29.33-44.59-31.68-92.7-32.85-110.3h157.23c4.69,30.51,10.56,44.59,18.77,57.5,15.25,21.12,50.46,42.24,109.13,42.24,9.39,0,44.59,0,72.75-16.43,30.51-16.43,37.55-43.42,37.55-58.67,0-4.69-1.17-12.91-5.87-23.47-9.39-19.95-28.16-29.33-48.11-35.2-69.23-22.29-137.29-29.34-205.34-51.63-31.68-10.56-123.21-43.42-123.21-152.54,1.17-73.92,38.72-112.65,59.84-129.07,73.92-58.67,176.01-56.32,198.3-56.32,14.08,0,157.23-3.52,225.29,77.44,17.6,22.29,36.38,53.98,41.07,114.99h-154.89Z" fill="#e8e9e3"/>
    <path d="M2688.97,451.97c-1.17-7.04-2.35-16.43-8.21-29.33-18.77-49.28-65.71-73.92-116.17-73.92-72.75,0-150.19,46.94-150.19,197.13,0,24.64,0,187.74,147.85,187.74,76.27,0,122.03-48.11,132.59-120.86h159.58c-8.21,56.32-24.64,104.43-62.19,149.02-79.79,95.04-190.09,98.56-231.16,98.56-72.75,0-138.46-15.25-197.13-59.84-44.59-34.03-116.17-109.13-116.17-252.28,0-19.95,2.35-82.14,25.81-140.81,26.99-66.88,103.26-183.05,288.65-183.05,186.57,1.17,260.49,107.95,280.44,183.05,3.52,11.73,5.87,21.12,8.21,44.59h-161.93Z" fill="#e8e9e3"/>
    <path d="M3424.68,295.91c72.75,63.36,100.91,152.54,100.91,245.24,0,38.72-2.35,144.33-83.31,229.98-35.2,36.38-103.26,89.18-224.12,89.18-19.95,0-72.75-1.17-125.55-22.29-125.55-49.28-184.22-166.62-184.22-296.87,0-64.54,12.91-107.95,23.47-131.42,25.81-65.71,100.91-183.05,283.96-185.4,37.55,0,129.07,2.35,208.86,71.58ZM3073.84,541.14c0,97.39,30.51,146.67,69.23,173.66,30.51,19.95,61.02,21.12,75.1,21.12,11.73,0,43.41-2.35,73.92-22.29,53.98-37.55,66.88-112.65,66.88-174.84s-11.73-124.38-63.36-163.1c-31.68-23.47-65.71-25.81-79.79-25.81-68.06,0-141.98,49.28-141.98,191.26Z" fill="#e8e9e3"/>
    <path d="M3779.04,317.03c16.43-21.12,22.29-26.99,32.85-36.37,23.47-22.29,70.4-56.32,152.54-56.32,17.6,0,59.84,1.17,105.6,22.29,71.58,31.68,160.75,118.51,160.75,299.21,0,35.2,0,154.89-83.31,241.72-26.99,26.99-80.96,72.75-177.18,72.75-86.83,0-138.46-38.72-161.93-63.36-11.73-11.73-17.6-22.3-21.12-28.16v286.31h-164.27V241.93h156.06v75.1ZM3781.39,544.66c0,15.25-2.35,110.3,61.02,158.41,32.85,23.47,68.06,25.81,82.14,25.81,61.02,0,92.7-34.03,105.61-52.8,25.81-35.2,34.03-88.01,34.03-131.42,0-14.08,0-83.31-32.85-131.42-14.08-19.95-46.94-56.32-109.13-55.15-69.23,0-140.81,45.76-140.81,186.57Z" fill="#e8e9e3"/>
    <path d="M4467.81,584.56c1.17,9.39,1.17,29.34,7.04,50.46,8.21,35.2,36.37,106.78,137.29,106.78,21.12,0,65.71-3.52,98.57-50.46,4.69-7.04,10.56-16.43,18.77-35.2h157.23c-2.35,8.21-7.04,28.16-17.6,49.28-29.34,61.02-84.48,112.65-149.02,136.11-46.94,17.6-97.39,18.77-112.65,18.77-22.3,0-75.1-1.17-130.25-23.47-118.51-49.28-177.18-168.97-176.01-292.17,0-176.01,118.51-320.34,301.56-320.34,29.34,0,102.09,3.52,170.14,52.8,131.42,96.22,124.38,265.19,124.38,307.43h-429.46ZM4729.48,475.43c-1.17-9.39-3.52-36.37-15.25-62.19-21.12-45.76-64.54-72.75-112.65-72.75s-95.04,28.16-117.34,73.92c-7.04,14.08-11.73,29.34-15.25,61.02h260.49Z" fill="#e8e9e3"/>
  </g>
</svg>